<svg id="Capa_1" enable-background="new 0 0 512 512" height="512" viewBox="0 0 512 512" width="512" xmlns="http://www.w3.org/2000/svg"><g><g><g><g><g><path d="m408.622 501.14h-58.478c-4.267 0-7.726-3.458-7.726-7.726s3.458-7.726 7.726-7.726h58.478c30.932 0 56.097-25.165 56.097-56.097v-41.414c0-4.267 3.458-7.726 7.726-7.726s7.726 3.458 7.726 7.726v41.414c-.001 39.453-32.098 71.549-71.549 71.549z" fill="#bcd6f9"/></g><g><g><path d="m370.069 44.463c-26.8-23.928-60.794-39.968-98.337-44.463h-71.518c-99.543 0-180.237 80.695-180.237 180.237v169.793h39.806v-169.79c0-77.112 62.735-139.847 139.847-139.847h112.344c22.326 0 43.446 5.259 62.188 14.603.368-3.959-1.127-7.884-4.093-10.533z" fill="#9bc4f9"/></g><g><path d="m311.388 0h-66.838c50.885 0 96.837 21.094 129.61 55.006 45.99 22.93 77.66 70.449 77.66 125.234v169.791h39.805v-169.794c0-99.542-80.695-180.237-180.237-180.237z" fill="#7fb2f9"/></g><g><g><g><path d="m9.492 273.982v101.336c0 12.222 9.908 22.13 22.13 22.13h64.464v-145.596h-64.464c-12.222 0-22.13 9.908-22.13 22.13z" fill="#89808c"/></g><path d="m83.679 421.376c-13.198 0-23.897-10.699-23.897-23.897v-145.627c0-13.198 10.699-23.897 23.897-23.897 16.662 0 30.17 13.507 30.17 30.17v133.082c0 16.662-13.508 30.169-30.17 30.169z" fill="#a096a3"/></g><g><g><path d="m502.508 273.982v101.336c0 12.222-9.908 22.13-22.13 22.13h-64.863v-145.596h64.863c12.222 0 22.13 9.908 22.13 22.13z" fill="#89808c"/></g><path d="m427.923 421.376c13.198 0 23.897-10.699 23.897-23.897v-145.627c0-13.198-10.699-23.897-23.897-23.897-16.662 0-30.17 13.507-30.17 30.17v133.082c0 16.662 13.507 30.169 30.17 30.169z" fill="#a096a3"/></g></g></g><path d="m340.829 512h-52.828c-10.264 0-18.585-8.321-18.585-18.585 0-10.264 8.321-18.585 18.585-18.585h52.828c10.264 0 18.585 8.321 18.585 18.585 0 10.264-8.321 18.585-18.585 18.585z" fill="#d67a7a"/></g></g></g><g><g><path d="m277.929 329.894 3.067-.001c12.437 0 22.519-10.083 22.519-22.52v-144.674c0-10.511-7.201-19.339-16.938-21.822h-112.044c-14.74 0-26.69 11.95-26.69 26.69v135.198c0 14.741 11.95 26.691 26.691 26.69l100.244-.004c1.075.001 2.135.153 3.151.443z" fill="#b3e59f"/></g><path d="m337.467 140.876h-61.202c12.363 0 22.385 10.022 22.385 22.384v143.804c0 12.362-10.022 22.384-22.384 22.385l-1.489.002c2.977 0 5.838 1.158 7.977 3.229l38.651 37.43c2.868 2.777 7.664.745 7.664-3.247v-29.015c0-4.639 3.76-8.399 8.399-8.399 14.74 0 26.689-11.95 26.689-26.69v-135.192c.001-14.741-11.949-26.691-26.69-26.691z" fill="#a8dbb2"/><g><path d="m256 171.801c-5.077 0-9.193 4.116-9.193 9.193s4.116 9.193 9.193 9.193 9.193-4.116 9.193-9.193-4.116-9.193-9.193-9.193z" fill="#eaf2ff"/><g><g><path d="m256 300.438c-4.267 0-7.726-3.458-7.726-7.726v-80.873c0-4.267 3.458-7.726 7.726-7.726s7.726 3.458 7.726 7.726v80.873c0 4.268-3.459 7.726-7.726 7.726z" fill="#eaf2ff"/></g></g></g></g></g></svg>