<svg id="Layer_1" enable-background="new 0 0 512 512" height="512" viewBox="0 0 512 512" width="512" xmlns="http://www.w3.org/2000/svg"><g><path d="m181.5 98.049v104.675c0 8.837 7.163 16 16 16h170.232c20.582 0 37.268 16.685 37.268 37.268v.014c0 20.582-16.685 37.268-37.268 37.268h-170.232c-8.837 0-16 7.163-16 16v104.677c0 8.837 7.163 16 16 16h170.232c20.582 0 37.268 16.685 37.268 37.268v.002c0 20.589-16.691 37.28-37.28 37.28h-188.778c-39.732-.001-71.942-32.211-71.942-71.943v-341.423c0-46.191 37.444-83.635 83.635-83.635h177.098c20.582 0 37.267 16.685 37.267 37.268 0 20.59-16.692 37.282-37.282 37.282h-170.218c-8.837-.001-16 7.163-16 15.999z" fill="#2abcc8"/><g fill="#0cacba"><path d="m197.5 82.049h-30c-8.836 0-16 7.163-16 16v104.675c0 8.837 7.164 16 16 16h30c-8.836 0-16-7.163-16-16v-104.675c0-8.836 7.164-16 16-16z"/><path d="m197.5 293.274h-30c-8.836 0-16 7.163-16 16v104.677c0 8.837 7.164 16 16 16h30c-8.836 0-16-7.163-16-16v-104.677c0-8.837 7.164-16 16-16z"/><path d="m367.732 7.5h-30c20.583 0 37.268 16.685 37.268 37.268 0 20.59-16.692 37.282-37.282 37.282h30c20.59 0 37.282-16.692 37.282-37.282 0-20.583-16.685-37.268-37.268-37.268z"/><path d="m367.732 218.724h-30c20.582 0 37.268 16.685 37.268 37.268v.014c0 20.582-16.685 37.268-37.268 37.268h30c20.582 0 37.268-16.685 37.268-37.268v-.014c0-20.582-16.685-37.268-37.268-37.268z"/></g><path d="m367.732 429.951h-170.232c-8.837 0-16-7.163-16-16v-94.106c-29.565-13.969-54.117-30.614-74.5-48.557v161.27c0 39.733 32.21 71.942 71.942 71.942h188.778c20.589 0 37.28-16.691 37.28-37.28v-.002c0-20.582-16.685-37.267-37.268-37.267z" fill="#f37c7c"/><path d="m367.732 429.951h-30c20.582 0 37.268 16.685 37.268 37.268v.002c0 20.589-16.691 37.28-37.28 37.28h30c20.589 0 37.28-16.691 37.28-37.28v-.002c0-20.583-16.685-37.268-37.268-37.268z" fill="#ee6161"/><path d="m181.825 417.175c-.213-1.042-.325-2.12-.325-3.225v-94.106c-10.335-4.883-20.044-10.099-29.19-15.577-.519 1.576-.81 3.256-.81 5.006v104.677c0 8.837 7.164 16 16 16h30c-7.732.001-14.183-5.484-15.675-12.775z" fill="#ee6161"/><g><path d="m107 216.93c4.143 0 7.5-3.358 7.5-7.5v-118.295c0-41.981 34.154-76.135 76.135-76.135h106.625c4.143 0 7.5-3.358 7.5-7.5s-3.357-7.5-7.5-7.5h-106.625c-50.252 0-91.135 40.883-91.135 91.135v118.295c0 4.142 3.357 7.5 7.5 7.5z"/><path d="m197.5 300.773h170.232c24.685 0 44.768-20.083 44.768-44.782 0-24.685-20.083-44.768-44.768-44.768h-170.232c-4.687 0-8.5-3.813-8.5-8.5v-104.674c0-4.687 3.813-8.5 8.5-8.5h170.219c24.692 0 44.781-20.089 44.781-44.782 0-24.684-20.083-44.767-44.768-44.767h-36.146c-4.143 0-7.5 3.358-7.5 7.5s3.357 7.5 7.5 7.5h36.146c16.414 0 29.768 13.354 29.768 29.768 0 16.422-13.359 29.782-29.781 29.782h-170.219c-12.958 0-23.5 10.542-23.5 23.5v104.675c0 12.958 10.542 23.5 23.5 23.5h170.232c16.414 0 29.768 13.354 29.768 29.782 0 16.414-13.354 29.768-29.768 29.768h-170.232c-12.459 0-22.679 9.747-23.448 22.016-21.807-11.264-41.802-24.667-59.552-39.929v-22.57c0-4.142-3.357-7.5-7.5-7.5s-7.5 3.358-7.5 7.5v187.268c0 43.805 35.638 79.442 79.442 79.442h188.778c24.691 0 44.779-20.089 44.779-44.782 0-24.685-20.083-44.768-44.768-44.768h-105.215c-4.143 0-7.5 3.358-7.5 7.5s3.357 7.5 7.5 7.5h105.217c16.414 0 29.768 13.354 29.768 29.77 0 16.42-13.359 29.78-29.779 29.78h-188.78c-35.533 0-64.442-28.909-64.442-64.442v-145.268c18.016 14.231 37.969 26.73 59.5 37.26v89.399c0 12.958 10.542 23.5 23.5 23.5h29.155c4.143 0 7.5-3.358 7.5-7.5s-3.357-7.5-7.5-7.5h-29.155c-4.687 0-8.5-3.813-8.5-8.5v-104.678c0-4.687 3.813-8.5 8.5-8.5z"/></g></g></svg>